<svg width="18" height="18" viewBox="0 0 18 18" fill="none" xmlns="http://www.w3.org/2000/svg">
<path d="M7.31692 6.43305C7.07284 6.18897 6.67711 6.18897 6.43303 6.43305C6.18896 6.67712 6.18896 7.07285 6.43303 7.31693L8.07443 8.95833L6.43305 10.5997C6.18897 10.8438 6.18897 11.2395 6.43305 11.4836C6.67713 11.7277 7.07286 11.7277 7.31693 11.4836L8.95832 9.84221L10.5997 11.4836C10.8438 11.7277 11.2395 11.7277 11.4836 11.4836C11.7276 11.2395 11.7276 10.8438 11.4836 10.5997L9.8422 8.95833L11.4836 7.31695C11.7277 7.07287 11.7277 6.67714 11.4836 6.43306C11.2395 6.18898 10.8438 6.18898 10.5997 6.43306L8.95832 8.07445L7.31692 6.43305Z" fill="#F3164E"/>
<path fill-rule="evenodd" clip-rule="evenodd" d="M8.95833 0C4.01078 0 0 4.01078 0 8.95833C0 13.9059 4.01078 17.9167 8.95833 17.9167C13.9059 17.9167 17.9167 13.9059 17.9167 8.95833C17.9167 4.01078 13.9059 0 8.95833 0ZM1.25 8.95833C1.25 4.70114 4.70114 1.25 8.95833 1.25C13.2155 1.25 16.6667 4.70114 16.6667 8.95833C16.6667 13.2155 13.2155 16.6667 8.95833 16.6667C4.70114 16.6667 1.25 13.2155 1.25 8.95833Z" fill="#F3164E"/>
<path d="M7.31692 6.43305C7.07284 6.18897 6.67711 6.18897 6.43303 6.43305C6.18896 6.67712 6.18896 7.07285 6.43303 7.31693L8.07443 8.95833L6.43305 10.5997C6.18897 10.8438 6.18897 11.2395 6.43305 11.4836C6.67713 11.7277 7.07286 11.7277 7.31693 11.4836L8.95832 9.84221L10.5997 11.4836C10.8438 11.7277 11.2395 11.7277 11.4836 11.4836C11.7276 11.2395 11.7276 10.8438 11.4836 10.5997L9.8422 8.95833L11.4836 7.31695C11.7277 7.07287 11.7277 6.67714 11.4836 6.43306C11.2395 6.18898 10.8438 6.18898 10.5997 6.43306L8.95832 8.07445L7.31692 6.43305Z" stroke="#F3164E"/>
<path fill-rule="evenodd" clip-rule="evenodd" d="M8.95833 0C4.01078 0 0 4.01078 0 8.95833C0 13.9059 4.01078 17.9167 8.95833 17.9167C13.9059 17.9167 17.9167 13.9059 17.9167 8.95833C17.9167 4.01078 13.9059 0 8.95833 0ZM1.25 8.95833C1.25 4.70114 4.70114 1.25 8.95833 1.25C13.2155 1.25 16.6667 4.70114 16.6667 8.95833C16.6667 13.2155 13.2155 16.6667 8.95833 16.6667C4.70114 16.6667 1.25 13.2155 1.25 8.95833Z" stroke="#F3164E"/>
</svg>
