<svg width="32" height="32" viewBox="0 0 32 32" fill="none" xmlns="http://www.w3.org/2000/svg">
<path fill-rule="evenodd" clip-rule="evenodd" d="M27.667 9.33203C27.667 9.88432 27.2193 10.332 26.667 10.332L5.33366 10.332C4.78138 10.332 4.33366 9.88432 4.33366 9.33203C4.33366 8.77975 4.78138 8.33203 5.33366 8.33203L26.667 8.33203C27.2193 8.33203 27.667 8.77975 27.667 9.33203Z" fill="#5E5E5E"/>
<path fill-rule="evenodd" clip-rule="evenodd" d="M27.667 16C27.667 16.5523 27.2193 17 26.667 17L5.33366 17C4.78138 17 4.33366 16.5523 4.33366 16C4.33366 15.4477 4.78138 15 5.33366 15L26.667 15C27.2193 15 27.667 15.4477 27.667 16Z" fill="#5E5E5E"/>
<path fill-rule="evenodd" clip-rule="evenodd" d="M27.667 22.668C27.667 23.2203 27.2193 23.668 26.667 23.668L5.33366 23.668C4.78138 23.668 4.33366 23.2203 4.33366 22.668C4.33366 22.1157 4.78138 21.668 5.33366 21.668L26.667 21.668C27.2193 21.668 27.667 22.1157 27.667 22.668Z" fill="#5E5E5E"/>
</svg>
