<svg width="24" height="24" viewBox="0 0 24 24" fill="none" xmlns="http://www.w3.org/2000/svg">
<path d="M12 0C18.6274 0 24 5.37258 24 12C24 18.6274 18.6274 24 12 24C5.37258 24 0 18.6274 0 12C0 5.37258 5.37258 0 12 0ZM17.8965 8.22559C18.0977 7.41809 17.5882 7.05175 17.0605 7.29102L5.50098 11.748C4.71203 12.0645 4.71685 12.505 5.35742 12.7012L8.32324 13.627L15.1904 9.29395C15.5146 9.09739 15.8124 9.20325 15.5684 9.41992L10.0039 14.4414L9.7998 17.501C10.0998 17.501 10.2329 17.364 10.4004 17.2012L11.8418 15.7988L14.8398 18.0146C15.3917 18.3191 15.7903 18.1611 15.9277 17.502L17.8965 8.22559Z" fill="#6A0BFF"/>
</svg>
